<svg width="15" height="15" viewBox="0 0 15 15" fill="none" xmlns="http://www.w3.org/2000/svg">
<path d="M14.5031 7.34062C13.9518 5.91452 12.9947 4.68123 11.75 3.79317C10.5054 2.9051 9.02787 2.40121 7.49999 2.34375C5.9721 2.40121 4.49454 2.9051 3.24993 3.79317C2.00531 4.68123 1.04819 5.91452 0.496862 7.34062C0.459628 7.44361 0.459628 7.55639 0.496862 7.65938C1.04819 9.08548 2.00531 10.3188 3.24993 11.2068C4.49454 12.0949 5.9721 12.5988 7.49999 12.6562C9.02787 12.5988 10.5054 12.0949 11.75 11.2068C12.9947 10.3188 13.9518 9.08548 14.5031 7.65938C14.5403 7.55639 14.5403 7.44361 14.5031 7.34062ZM7.49999 11.7188C5.01561 11.7188 2.39061 9.87656 1.43905 7.5C2.39061 5.12344 5.01561 3.28125 7.49999 3.28125C9.98436 3.28125 12.6094 5.12344 13.5609 7.5C12.6094 9.87656 9.98436 11.7188 7.49999 11.7188Z" fill="black"/>
<path d="M7.5 4.6875C6.94374 4.6875 6.39997 4.85245 5.93746 5.16149C5.47495 5.47053 5.11446 5.90979 4.90159 6.4237C4.68872 6.93762 4.63302 7.50312 4.74154 8.04869C4.85006 8.59426 5.11793 9.0954 5.51126 9.48874C5.9046 9.88207 6.40574 10.1499 6.95131 10.2585C7.49688 10.367 8.06238 10.3113 8.5763 10.0984C9.09022 9.88554 9.52947 9.52506 9.83851 9.06254C10.1476 8.60003 10.3125 8.05626 10.3125 7.5C10.3125 6.75408 10.0162 6.03871 9.48874 5.51126C8.96129 4.98382 8.24592 4.6875 7.5 4.6875ZM7.5 9.375C7.12916 9.375 6.76665 9.26503 6.45831 9.05901C6.14996 8.85298 5.90964 8.56014 5.76773 8.21753C5.62581 7.87492 5.58868 7.49792 5.66103 7.13421C5.73338 6.77049 5.91195 6.4364 6.17418 6.17417C6.4364 5.91195 6.77049 5.73337 7.13421 5.66103C7.49792 5.58868 7.87492 5.62581 8.21753 5.76773C8.56014 5.90964 8.85298 6.14996 9.05901 6.45831C9.26503 6.76665 9.375 7.12916 9.375 7.5C9.375 7.99728 9.17746 8.47419 8.82583 8.82583C8.4742 9.17746 7.99728 9.375 7.5 9.375Z" fill="black"/>
</svg>
